<svg width="130" height="19" viewBox="0 0 130 19" fill="none" xmlns="http://www.w3.org/2000/svg">
<path fill-rule="evenodd" clip-rule="evenodd" d="M28.3123 6.88317C28.3123 8.60359 27.1316 10.0007 25.6776 10.0007C24.2236 10.0007 23.043 8.60359 23.043 6.88317C23.043 5.16275 24.2236 3.76562 25.6776 3.76562C27.1316 3.76562 28.3123 5.16275 28.3123 6.88317ZM26.7719 6.83729C26.7719 7.7841 26.2833 8.54617 25.6843 8.54617C25.0852 8.54617 24.5967 7.7841 24.5967 6.83729C24.5967 5.89048 25.0852 5.12842 25.6843 5.12842C26.2833 5.12842 26.7719 5.89048 26.7719 6.83729Z" fill="white"/>
<path fill-rule="evenodd" clip-rule="evenodd" d="M62.0568 5.23735C62.0568 7.11365 60.7714 8.63778 59.1837 8.63778C57.5959 8.63778 56.3105 7.11365 56.3105 5.23735C56.3105 3.36105 57.5959 1.83691 59.1837 1.83691C60.7714 1.83691 62.0568 3.36105 62.0568 5.23735ZM60.3759 5.19101C60.3759 6.21865 59.8466 7.04999 59.1894 7.04999C58.5322 7.04999 58.0029 6.21865 58.0029 5.19101C58.0029 4.16338 58.5322 3.33203 59.1894 3.33203C59.8466 3.33203 60.3759 4.16338 60.3759 5.19101Z" fill="white"/>
<path d="M23.2421 11.0741H24.8648V13.2564H31.4659V14.8267H24.068C24.068 14.8267 23.2305 14.8845 23.2305 13.7933L23.2479 11.0684L23.2421 11.0741Z" fill="white"/>
<path d="M29.6562 1.94727H31.3138V5.42852H32.3142L32.3258 6.98152H31.3196L31.3138 11.4846H29.6562V1.94727Z" fill="white"/>
<path d="M24.852 1.78516H26.5154V2.68578H28.5859V4.20414H22.8164V2.68001H24.852V1.78516Z" fill="white"/>
<path d="M33.9961 6.55393V8.10693H37.4101V9.88508H34.2113V11.4381H40.7194V14.8212H42.4409V10.9185C42.4409 10.9185 42.4991 9.89086 41.5453 9.89086H39.0618V8.1127H42.6212V6.5597H41.8012L42.2606 3.22855C42.2606 3.22855 42.4642 2.18359 41.4231 2.18359H34.3625L34.3567 3.71927H40.5158L40.1494 6.5597H33.9961V6.55393Z" fill="white"/>
<path fill-rule="evenodd" clip-rule="evenodd" d="M50.2054 2.17188H45.2734V12.1653C45.3025 13.268 46.1168 13.2449 46.1168 13.2449H50.2054V2.17188ZM46.9072 3.70801H48.5532V11.6982H46.9072V3.70801Z" fill="white"/>
<path d="M51.8496 1.89453H53.5246V6.09744H54.5424V8.15849H53.5246V14.8208H51.8496V1.89453Z" fill="white"/>
<path d="M56.5332 10.1963H63.9486C63.9486 10.1963 64.7861 10.2194 64.7861 11.2412V14.8553H63.1344V11.7377H56.5332V10.1963Z" fill="white"/>
<path d="M62.9141 1.90039H64.5658V3.36102H65.5836V4.8967H64.5658V5.92433H65.5836V7.47156H64.5658V8.92064H62.9141V1.90039Z" fill="white"/>
<path d="M73.3687 2.18905V3.71896H69.7453V4.74082H73.3687V6.28227H69.7453V7.30413H73.3687V8.84559H71.7169V11.2068H74.6075V1.90039H76.2709V14.8267H74.6075V12.7541H67.8086V11.2126H70.0652V8.85136H68.9369C68.9369 8.85136 68.1227 8.87445 68.1227 7.80063V2.18905H73.3687Z" fill="white"/>
<path d="M87.2884 1.84766H85.6309V14.7739H87.2884V1.84766Z" fill="white"/>
<path d="M80.7859 4.42358H78.8026V2.88213H80.7859V1.85449H82.4376V2.88213H84.4325V4.42358H82.4376V7.76051C82.4376 7.76051 82.5074 10.3469 84.6535 11.9576L83.4554 13.4818C83.4554 13.4818 82.0538 12.304 81.6176 10.982C81.6176 10.982 81.193 12.2463 79.7622 13.4818L78.5234 12.0038C78.5234 12.0038 80.5009 10.5259 80.78 7.75473V4.42358H80.7859Z" fill="white"/>
<path d="M90.043 11.0741H91.6773V13.1179H98.2959V14.7286H90.9154C90.9154 14.7286 90.043 14.821 90.043 13.6374V11.0684V11.0741Z" fill="white"/>
<path d="M98.4262 8.21094V9.78126H94.9715V11.3227H93.3198V9.78126H89.8477V8.21094H98.4262Z" fill="white"/>
<path fill-rule="evenodd" clip-rule="evenodd" d="M108.178 11.8472C108.178 13.7061 106.648 15.2187 104.764 15.2187C102.879 15.2187 101.35 13.7061 101.35 11.8472C101.35 9.98817 102.879 8.47559 104.764 8.47559C106.648 8.47559 108.178 9.98817 108.178 11.8472ZM106.473 11.9112C106.473 12.9562 105.746 13.7991 104.844 13.7991C103.943 13.7991 103.216 12.9562 103.216 11.9112C103.216 10.8663 103.943 10.0234 104.844 10.0234C105.746 10.0234 106.473 10.8663 106.473 11.9112Z" fill="white"/>
<path fill-rule="evenodd" clip-rule="evenodd" d="M97.4354 5.14989C97.4354 7.00887 95.9058 8.52145 94.0214 8.52145C92.137 8.52145 90.6074 7.00887 90.6074 5.14989C90.6074 3.29091 92.137 1.77832 94.0214 1.77832C95.9058 1.77832 97.4354 3.29091 97.4354 5.14989ZM95.7374 5.20816C95.7374 6.25079 95.0083 7.09601 94.1089 7.09601C93.2096 7.09601 92.4805 6.25079 92.4805 5.20816C92.4805 4.16553 93.2096 3.32031 94.1089 3.32031C95.0083 3.32031 95.7374 4.16553 95.7374 5.20816Z" fill="white"/>
<path d="M100.92 2.125H108.498V3.66068H102.554V4.93079H108.498V6.45492H105.532V7.52874H108.987V9.0471H100.426V7.52874H103.88V6.45492H101.734C101.734 6.45492 100.914 6.58771 100.914 5.42151V2.125H100.92Z" fill="white"/>
<path d="M111.303 10.9873H112.954V13.1811H119.556V14.7688H112.123C112.123 14.7688 111.285 14.9073 111.285 13.7238L111.303 10.9873Z" fill="white"/>
<path fill-rule="evenodd" clip-rule="evenodd" d="M119.77 10.0175H111.145V8.47601H114.593V7.26941H112.139C111.249 7.26941 111.319 6.22445 111.319 6.22445V2.09082H112.953V3.23969H117.897V2.09082H119.549V7.26941H116.245V8.47601H119.77V10.0175ZM112.954 4.53875H117.898V5.68763H112.954V4.53875Z" fill="white"/>
<path fill-rule="evenodd" clip-rule="evenodd" d="M123.01 8.00215L129.675 7.9906V2.125H128.024V3.33738H123.406V2.125H121.748V6.42606C121.748 8.08297 123.01 8.00215 123.01 8.00215ZM123.399 4.87853H128.017V6.42575H123.399V4.87853Z" fill="white"/>
<path d="M121.422 9.46387H130V11.0053H126.528V14.7752H124.877V11.0053H121.422V9.46387Z" fill="white"/>
<path d="M10.5454 7.51773C9.52178 7.32144 8.85294 6.33422 9.05068 5.31813C9.24842 4.30204 10.243 3.63234 11.2666 3.83441C12.2902 4.0307 12.959 5.01792 12.7613 6.03401C12.7613 6.03401 12.4763 7.23484 13.814 7.59855C14.5468 7.74289 15.2563 7.26371 15.3959 6.53628C15.5704 5.22576 14.3432 4.97173 14.3432 4.97173C13.3196 4.77544 12.645 3.78822 12.8485 2.77213C13.0405 1.46161 11.8016 1.23068 11.8016 1.23068C10.3942 1.05171 10.2139 2.29296 10.2139 2.29296C10.0161 3.30904 9.0216 3.97297 7.99798 3.77668C6.97437 3.58039 6.29971 2.59316 6.50327 1.57707C6.50327 1.57707 6.71846 0.312737 5.43313 0.0240756C4.70031 -0.114482 3.99076 0.358923 3.85118 1.08635C3.66507 2.37378 4.89224 2.65667 4.89224 2.65667C5.91586 2.85296 6.5847 3.84018 6.38695 4.85627C6.18921 5.87236 5.19467 6.54205 4.17106 6.33999C3.14744 6.1437 2.4786 5.15648 2.67635 4.14039V4.15771C2.82175 3.43028 2.33902 2.72595 1.6062 2.58739C0.873389 2.44306 0.163838 2.92224 0.0242539 3.64966C-0.11533 4.37709 0.361582 5.08143 1.0944 5.21998C1.0944 5.21998 1.78068 5.26617 2.26923 5.96473C2.26923 5.96473 2.75777 6.53628 2.57166 7.39649C2.42626 8.12392 2.90899 8.82825 3.6418 8.96681C4.37462 9.10537 5.08417 8.63196 5.22375 7.90454C5.22375 7.90454 5.50292 6.18411 7.43965 6.39772C8.46326 6.59401 9.1321 7.58123 8.93436 8.59732C8.93436 8.59732 9.44035 7.56392 10.5512 7.51196L10.5454 7.51773Z" fill="white"/>
<path d="M12.9894 17.6149C13.5187 18.1403 14.3736 18.1345 14.9029 17.6149C15.4321 17.0896 15.4263 16.2409 14.9029 15.7155C14.3736 15.1902 13.5361 15.219 12.9894 15.7155C11.5994 16.9856 10.2675 15.7155 10.2675 15.7155C9.73246 15.1844 8.86588 15.1902 8.33663 15.7155C7.80155 16.2467 7.80737 17.1069 8.33663 17.6322C8.8717 18.1634 9.73828 18.1576 10.2675 17.6322C10.2675 17.6322 11.4714 16.3737 12.9894 17.6091V17.6149Z" fill="white"/>
<path d="M11.4815 12.3671C11.3419 13.0946 11.8188 13.7989 12.5516 13.9375C13.2845 14.0818 13.994 13.6026 14.1336 12.8752C14.5698 10.9238 16.4135 11.351 16.4135 11.351C17.1463 11.4954 17.8558 11.0162 17.9954 10.2888C18.1408 9.56135 17.6581 8.85701 16.9253 8.71846C16.9253 8.71846 15.6167 8.45866 15.2968 9.7865C15.099 10.8026 14.1045 11.4665 13.0809 11.2702C11.2605 10.7795 11.5804 9.09372 11.5804 9.09372C11.7258 8.36629 11.243 7.66196 10.5102 7.5234C10.5102 7.5234 9.28887 7.2867 8.91665 8.60299C8.7189 9.61908 7.72437 10.283 6.70075 10.0867C5.30491 9.90774 5.11298 11.149 5.11298 11.149C4.61863 12.9849 2.87964 12.6269 2.87964 12.6269C2.14683 12.4826 1.43728 12.9618 1.29769 13.6892C1.15811 14.4166 1.63502 15.121 2.36783 15.2595C3.10065 15.4039 3.8102 14.9247 3.94979 14.1973C4.41507 12.3614 6.1715 12.7078 6.1715 12.7078C6.90431 12.8463 7.61386 12.3729 7.75345 11.6455C7.75345 11.6455 8.06169 10.0405 9.76578 10.1214C9.76578 10.1214 11.6385 10.283 11.4699 12.3383" fill="white"/>
</svg>
